# xmcd CD database file
#
# Track frame offsets:
#	150
#	16620
#	35945
#	62107
#	104202
#	119550
#	138482
#	153800
#	176410
#	197162
#	210545
#
# Disc length: 3163 seconds
#
# Revision: 4
# Processed by: cddbd v1.5.2PL0 Copyright (c) Steve Scherf et al.
# Submitted via: CDex 1.51
#
DISCID=9e0c590b
DTITLE=Albert Collins - Collins Mix (The Best Of)
DYEAR=1900
DGENRE=Blues
TTITLE0=There's Gotta Be A Change
TTITLE1=Honey Hush
TTITLE2=Mastercharge
TTITLE3=If Trouble Was Money
TTITLE4=Don't Lose Your Cool
TTITLE5=If You Love Me Like You Say
TTITLE6=Frosty
TTITLE7=Tired Man
TTITLE8=The Moon Is Full
TTITLE9=Collins Mix
TTITLE10=Same Old Thing
EXTD=
EXTT0=
EXTT1=
EXTT2=
EXTT3=
EXTT4=
EXTT5=
EXTT6=
EXTT7=
EXTT8=
EXTT9=
EXTT10=
PLAYORDER=
